{
  "accessors": [
    {
      "bufferView": 2,
      "componentType": 5126,
      "count": 5796,
      "max": [
        0.06016257032752037,
        0.023355279117822647,
        0.7151167988777161
      ],
      "min": [
        -0.05868375673890114,
        -0.04276416450738907,
        0.5938318371772766
      ],
      "type": "VEC3"
    },
    {
      "bufferView": 2,
      "byteOffset": 69552,
      "componentType": 5126,
      "count": 5796,
      "max": [
        1.0,
        1.0,
        1.0
      ],
      "min": [
        -0.9953901767730713,
        -0.9959030747413635,
        -0.9815076589584351
      ],
      "type": "VEC3"
    },
    {
      "bufferView": 1,
      "componentType": 5126,
      "count": 5796,
      "max": [
        0.5637360215187073,
        0.19791799783706665
      ],
      "min": [
        0.5086899995803833,
        0.19791799783706665
      ],
      "type": "VEC2"
    },
    {
      "bufferView": 0,
      "componentType": 5125,
      "count": 29841,
      "type": "SCALAR"
    },
    {
      "bufferView": 2,
      "byteOffset": 139104,
      "componentType": 5126,
      "count": 2376,
      "max": [
        0.06389132887125015,
        0.024874402210116386,
        0.7184642553329468
      ],
      "min": [
        -0.060569778084754944,
        -0.05029330402612686,
        0.5879392623901367
      ],
      "type": "VEC3"
    },
    {
      "bufferView": 2,
      "byteOffset": 167616,
      "componentType": 5126,
      "count": 2376,
      "max": [
        1.0,
        1.0,
        1.0
      ],
      "min": [
        -0.9999618530273438,
        -0.9997683763504028,
        -0.9984890818595886
      ],
      "type": "VEC3"
    },
    {
      "bufferView": 1,
      "byteOffset": 46368,
      "componentType": 5126,
      "count": 2376,
      "max": [
        0.9934629797935486,
        0.9979730248451233
      ],
      "min": [
        0.764316976070404,
        0.0029789800755679607
      ],
      "type": "VEC2"
    },
    {
      "bufferView": 0,
      "byteOffset": 119364,
      "componentType": 5125,
      "count": 6930,
      "type": "SCALAR"
    },
    {
      "bufferView": 2,
      "byteOffset": 196128,
      "componentType": 5126,
      "count": 4216,
      "max": [
        0.06476492434740067,
        0.024992553517222404,
        0.720814049243927
      ],
      "min": [
        -0.06108979508280754,
        -0.05373085290193558,
        0.591475784778595
      ],
      "type": "VEC3"
    },
    {
      "bufferView": 2,
      "byteOffset": 246720,
      "componentType": 5126,
      "count": 4216,
      "max": [
        1.0,
        1.0,
        1.0
      ],
      "min": [
        -0.9999141097068787,
        -0.9998717904090881,
        -0.9918093085289001
      ],
      "type": "VEC3"
    },
    {
      "bufferView": 1,
      "byteOffset": 65376,
      "componentType": 5126,
      "count": 4216,
      "max": [
        0.7578200101852417,
        0.996658980846405
      ],
      "min": [
        0.005282990168780088,
        0.0029990000184625387
      ],
      "type": "VEC2"
    },
    {
      "bufferView": 0,
      "byteOffset": 147084,
      "componentType": 5125,
      "count": 12252,
      "type": "SCALAR"
    },
    {
      "bufferView": 2,
      "byteOffset": 297312,
      "componentType": 5126,
      "count": 5000,
      "max": [
        0.08956946432590485,
        0.08111943304538727,
        0.7269424200057983
      ],
      "min": [
        -0.08161994814872742,
        -0.03010767512023449,
        0.4264051616191864
      ],
      "type": "VEC3"
    },
    {
      "bufferView": 2,
      "byteOffset": 357312,
      "componentType": 5126,
      "count": 5000,
      "max": [
        1.0,
        1.0,
        1.0
      ],
      "min": [
        -0.9995959997177124,
        -0.9995449185371399,
        -0.9930100440979004
      ],
      "type": "VEC3"
    },
    {
      "bufferView": 1,
      "byteOffset": 99104,
      "componentType": 5126,
      "count": 5000,
      "max": [
        0.9934629797935486,
        0.996658980846405
      ],
      "min": [
        0.764316976070404,
        0.0041261399164795876
      ],
      "type": "VEC2"
    },
    {
      "bufferView": 0,
      "byteOffset": 196092,
      "componentType": 5125,
      "count": 14622,
      "type": "SCALAR"
    },
    {
      "bufferView": 2,
      "byteOffset": 417312,
      "componentType": 5126,
      "count": 18900,
      "max": [
        0.08268238604068756,
        0.07675085216760635,
        0.7258808612823486
      ],
      "min": [
        -0.083476223051548,
        -0.027347205206751823,
        0.4301643371582031
      ],
      "type": "VEC3"
    },
    {
      "bufferView": 2,
      "byteOffset": 644112,
      "componentType": 5126,
      "count": 18900,
      "max": [
        1.0,
        1.0,
        1.0
      ],
      "min": [
        -0.9999929070472717,
        -0.999991774559021,
        -0.9971884489059448
      ],
      "type": "VEC3"
    },
    {
      "bufferView": 1,
      "byteOffset": 139104,
      "componentType": 5126,
      "count": 18900,
      "max": [
        0.9558979868888855,
        0.9986720085144043
      ],
      "min": [
        0.00996518973261118,
        0.004999000113457441
      ],
      "type": "VEC2"
    },
    {
      "bufferView": 0,
      "byteOffset": 254580,
      "componentType": 5125,
      "count": 109392,
      "type": "SCALAR"
    },
    {
      "bufferView": 2,
      "byteOffset": 870912,
      "componentType": 5126,
      "count": 8062,
      "max": [
        0.08646367490291595,
        0.08499770611524582,
        0.7274260520935059
      ],
      "min": [
        -0.08490008115768433,
        -0.030159836634993553,
        0.42780816555023193
      ],
      "type": "VEC3"
    },
    {
      "bufferView": 2,
      "byteOffset": 967656,
      "componentType": 5126,
      "count": 8062,
      "max": [
        1.0,
        1.0,
        1.0
      ],
      "min": [
        -0.9999985098838806,
        -0.9999803304672241,
        -0.9998361468315125
      ],
      "type": "VEC3"
    },
    {
      "bufferView": 1,
      "byteOffset": 290304,
      "componentType": 5126,
      "count": 8062,
      "max": [
        0.5637360215187073,
        0.9965220093727112
      ],
      "min": [
        0.005282990168780088,
        0.0029990000184625387
      ],
      "type": "VEC2"
    },
    {
      "bufferView": 0,
      "byteOffset": 692148,
      "componentType": 5125,
      "count": 23568,
      "type": "SCALAR"
    },
    {
      "bufferView": 2,
      "byteOffset": 1064400,
      "componentType": 5126,
      "count": 1402,
      "max": [
        0.034745704382658005,
        0.0490611307322979,
        0.7219440937042236
      ],
      "min": [
        -0.03474634513258934,
        -0.037205636501312256,
        0.6175553798675537
      ],
      "type": "VEC3"
    },
    {
      "bufferView": 2,
      "byteOffset": 1081224,
      "componentType": 5126,
      "count": 1402,
      "max": [
        1.0,
        1.0,
        1.0
      ],
      "min": [
        -0.999548077583313,
        -0.9719456434249878,
        -0.5257167220115662
      ],
      "type": "VEC3"
    },
    {
      "bufferView": 1,
      "byteOffset": 354800,
      "componentType": 5126,
      "count": 1402,
      "max": [
        0.992779016494751,
        0.9942880272865295
      ],
      "min": [
        0.0072200000286102295,
        0.005710000172257423
      ],
      "type": "VEC2"
    },
    {
      "bufferView": 0,
      "byteOffset": 786420,
      "componentType": 5125,
      "count": 7776,
      "type": "SCALAR"
    }
  ],
  "asset": {
    "extras": {
      "author": "backdoor3d (https://sketchfab.com/backdoor3d)",
      "license": "CC-BY-ND-4.0 (http://creativecommons.org/licenses/by-nd/4.0/)",
      "source": "https://sketchfab.com/3d-models/nadu-hair-f94120eeb3f442eb853e60602501cf82",
      "title": "nadu Hair"
    },
    "generator": "Sketchfab-12.59.0",
    "version": "2.0"
  },
  "bufferViews": [
    {
      "buffer": 0,
      "byteLength": 817524,
      "name": "floatBufferViews",
      "target": 34963
    },
    {
      "buffer": 0,
      "byteLength": 366016,
      "byteOffset": 817524,
      "byteStride": 8,
      "name": "floatBufferViews",
      "target": 34962
    },
    {
      "buffer": 0,
      "byteLength": 1098048,
      "byteOffset": 1183540,
      "byteStride": 12,
      "name": "floatBufferViews",
      "target": 34962
    }
  ],
  "buffers": [
    {
      "byteLength": 2281588,
      "uri": "scene.bin"
    }
  ],
  "materials": [
    {
      "doubleSided": true,
      "name": "Scalp",
      "pbrMetallicRoughness": {
        "baseColorFactor": [
          0.0015093152024773647,
          0.0015093152024773647,
          0.0020548508178306287,
          1.0
        ],
        "metallicFactor": 0.0,
        "roughnessFactor": 0.6
      }
    },
    {
      "doubleSided": true,
      "name": "Bangs",
      "pbrMetallicRoughness": {
        "baseColorFactor": [
          0.0470588,
          0.0470588,
          0.0470588,
          1.0
        ],
        "metallicFactor": 0.0,
        "roughnessFactor": 0.6
      }
    },
    {
      "doubleSided": true,
      "name": "BangsCross",
      "pbrMetallicRoughness": {
        "baseColorFactor": [
          0.0001060763696520236,
          0.0001060763696520236,
          0.001712375681525524,
          1.0
        ],
        "metallicFactor": 0.0,
        "roughnessFactor": 0.6
      }
    },
    {
      "doubleSided": true,
      "name": "BangsStrands",
      "pbrMetallicRoughness": {
        "baseColorFactor": [
          0.0007455653409827945,
          0.0007455653409827945,
          0.0020548508178306287,
          1.0
        ],
        "metallicFactor": 0.0,
        "roughnessFactor": 0.6
      }
    },
    {
      "doubleSided": true,
      "name": "CrossStrands",
      "pbrMetallicRoughness": {
        "baseColorFactor": [
          0.000381874930747285,
          0.000381874930747285,
          0.0006849502726102096,
          1.0
        ],
        "metallicFactor": 0.0,
        "roughnessFactor": 0.6
      }
    },
    {
      "doubleSided": true,
      "name": "Hair",
      "pbrMetallicRoughness": {
        "baseColorFactor": [
          0.0013502006479993254,
          0.0013502006479993254,
          0.0030822762267459346,
          1.0
        ],
        "metallicFactor": 0.0,
        "roughnessFactor": 0.6
      }
    },
    {
      "doubleSided": true,
      "name": "Strands",
      "pbrMetallicRoughness": {
        "baseColorFactor": [
          0.0020730353383424,
          0.0020730353383424,
          0.004220366466787754,
          1.0
        ],
        "metallicFactor": 0.0,
        "roughnessFactor": 0.6
      }
    }
  ],
  "meshes": [
    {
      "name": "Object_0",
      "primitives": [
        {
          "attributes": {
            "NORMAL": 1,
            "POSITION": 0,
            "TEXCOORD_0": 2
          },
          "indices": 3,
          "material": 1,
          "mode": 4
        }
      ]
    },
    {
      "name": "Object_1",
      "primitives": [
        {
          "attributes": {
            "NORMAL": 5,
            "POSITION": 4,
            "TEXCOORD_0": 6
          },
          "indices": 7,
          "material": 2,
          "mode": 4
        }
      ]
    },
    {
      "name": "Object_2",
      "primitives": [
        {
          "attributes": {
            "NORMAL": 9,
            "POSITION": 8,
            "TEXCOORD_0": 10
          },
          "indices": 11,
          "material": 3,
          "mode": 4
        }
      ]
    },
    {
      "name": "Object_3",
      "primitives": [
        {
          "attributes": {
            "NORMAL": 13,
            "POSITION": 12,
            "TEXCOORD_0": 14
          },
          "indices": 15,
          "material": 4,
          "mode": 4
        }
      ]
    },
    {
      "name": "Object_4",
      "primitives": [
        {
          "attributes": {
            "NORMAL": 17,
            "POSITION": 16,
            "TEXCOORD_0": 18
          },
          "indices": 19,
          "material": 5,
          "mode": 4
        }
      ]
    },
    {
      "name": "Object_5",
      "primitives": [
        {
          "attributes": {
            "NORMAL": 21,
            "POSITION": 20,
            "TEXCOORD_0": 22
          },
          "indices": 23,
          "material": 6,
          "mode": 4
        }
      ]
    },
    {
      "name": "Object_6",
      "primitives": [
        {
          "attributes": {
            "NORMAL": 25,
            "POSITION": 24,
            "TEXCOORD_0": 26
          },
          "indices": 27,
          "material": 0,
          "mode": 4
        }
      ]
    }
  ],
  "nodes": [
    {
      "children": [
        1
      ],
      "matrix": [
        1.0,
        0.0,
        0.0,
        0.0,
        0.0,
        2.220446049250313e-16,
        -1.0,
        0.0,
        0.0,
        1.0,
        2.220446049250313e-16,
        0.0,
        0.0,
        0.0,
        0.0,
        1.0
      ],
      "name": "Sketchfab_model"
    },
    {
      "children": [
        2,
        3,
        4,
        5,
        6,
        7,
        8
      ],
      "name": "5ec43df4392046b291fa57a846cbc98a.3ds"
    },
    {
      "mesh": 0,
      "name": "Object_2"
    },
    {
      "mesh": 1,
      "name": "Object_3"
    },
    {
      "mesh": 2,
      "name": "Object_4"
    },
    {
      "mesh": 3,
      "name": "Object_5"
    },
    {
      "mesh": 4,
      "name": "Object_6"
    },
    {
      "mesh": 5,
      "name": "Object_7"
    },
    {
      "mesh": 6,
      "name": "Object_8"
    }
  ],
  "scene": 0,
  "scenes": [
    {
      "name": "Sketchfab_Scene",
      "nodes": [
        0
      ]
    }
  ]
}
