{
  "accessors": [
    {
      "bufferView": 2,
      "componentType": 5126,
      "count": 1824,
      "max": [
        81.554443359375,
        247.32603454589844,
        108.80770874023438
      ],
      "min": [
        -83.25384521484375,
        123.64000701904297,
        -120.43941497802734
      ],
      "type": "VEC3"
    },
    {
      "bufferView": 2,
      "byteOffset": 21888,
      "componentType": 5126,
      "count": 1824,
      "max": [
        0.9998127222061157,
        0.9996522665023804,
        0.9999125599861145
      ],
      "min": [
        -0.9998125433921814,
        -0.9996658563613892,
        -0.9991318583488464
      ],
      "type": "VEC3"
    },
    {
      "bufferView": 1,
      "componentType": 5126,
      "count": 1824,
      "max": [
        0.8200646638870239,
        0.8763414025306702
      ],
      "min": [
        -0.39681586623191833,
        -0.416695773601532
      ],
      "type": "VEC2"
    },
    {
      "bufferView": 0,
      "componentType": 5125,
      "count": 9096,
      "type": "SCALAR"
    },
    {
      "bufferView": 2,
      "byteOffset": 43776,
      "componentType": 5126,
      "count": 571,
      "max": [
        28.611888885498047,
        245.8548126220703,
        50.79239273071289
      ],
      "min": [
        -30.296741485595703,
        191.18319702148438,
        26.997941970825195
      ],
      "type": "VEC3"
    },
    {
      "bufferView": 2,
      "byteOffset": 50628,
      "componentType": 5126,
      "count": 571,
      "max": [
        0.9999775886535645,
        0.9998505711555481,
        0.9992028474807739
      ],
      "min": [
        -0.9999775290489197,
        -0.9781098961830139,
        -0.2166040539741516
      ],
      "type": "VEC3"
    },
    {
      "bufferView": 1,
      "byteOffset": 14592,
      "componentType": 5126,
      "count": 571,
      "max": [
        1.0,
        1.1579463481903076
      ],
      "min": [
        0.00047684088349342346,
        0.015076844953000546
      ],
      "type": "VEC2"
    },
    {
      "bufferView": 0,
      "byteOffset": 36384,
      "componentType": 5125,
      "count": 2880,
      "type": "SCALAR"
    },
    {
      "bufferView": 2,
      "byteOffset": 57480,
      "componentType": 5126,
      "count": 124,
      "max": [
        22.241592407226563,
        240.57730102539063,
        50.53823471069336
      ],
      "min": [
        -23.926448822021484,
        197.4997100830078,
        39.12748336791992
      ],
      "type": "VEC3"
    },
    {
      "bufferView": 2,
      "byteOffset": 58968,
      "componentType": 5126,
      "count": 124,
      "max": [
        0.09027532488107681,
        0.34567177295684814,
        0.9865565896034241
      ],
      "min": [
        -0.09027272462844849,
        0.16342034935951233,
        0.9383555054664612
      ],
      "type": "VEC3"
    },
    {
      "bufferView": 3,
      "componentType": 5126,
      "count": 124,
      "max": [
        0.9999987483024597,
        0.9129276275634766,
        0.1683097928762436,
        1.0
      ],
      "min": [
        -0.9999987483024597,
        -0.9805523157119751,
        -0.33001479506492615,
        -1.0
      ],
      "type": "VEC4"
    },
    {
      "bufferView": 1,
      "byteOffset": 19160,
      "componentType": 5126,
      "count": 124,
      "max": [
        0.4845104217529297,
        0.8636923432350159
      ],
      "min": [
        0.1306970864534378,
        0.13630761206150055
      ],
      "type": "VEC2"
    },
    {
      "bufferView": 0,
      "byteOffset": 47904,
      "componentType": 5125,
      "count": 600,
      "type": "SCALAR"
    }
  ],
  "asset": {
    "extras": {
      "author": "Anthony Yanez (https://sketchfab.com/paulyanez)",
      "license": "CC-BY-4.0 (http://creativecommons.org/licenses/by/4.0/)",
      "source": "https://sketchfab.com/3d-models/marios-cap-super-mario-bros-82bcc48237ec4ff98ce770de60913d26",
      "title": "Mario's Cap (Super Mario Bros)"
    },
    "generator": "Sketchfab-12.66.0",
    "version": "2.0"
  },
  "bufferViews": [
    {
      "buffer": 0,
      "byteLength": 50304,
      "name": "floatBufferViews",
      "target": 34963
    },
    {
      "buffer": 0,
      "byteLength": 20152,
      "byteOffset": 50304,
      "byteStride": 8,
      "name": "floatBufferViews",
      "target": 34962
    },
    {
      "buffer": 0,
      "byteLength": 60456,
      "byteOffset": 70456,
      "byteStride": 12,
      "name": "floatBufferViews",
      "target": 34962
    },
    {
      "buffer": 0,
      "byteLength": 1984,
      "byteOffset": 130912,
      "byteStride": 16,
      "name": "floatBufferViews",
      "target": 34962
    }
  ],
  "buffers": [
    {
      "byteLength": 132896,
      "uri": "scene.bin"
    }
  ],
  "images": [
    {
      "uri": "textures/21_-_Default_baseColor.png"
    },
    {
      "uri": "textures/21_-_Default_normal.png"
    }
  ],
  "materials": [
    {
      "doubleSided": true,
      "name": "03_-_Default",
      "pbrMetallicRoughness": {
        "baseColorFactor": [
          0.921569,
          0.0,
          0.0,
          1.0
        ],
        "roughnessFactor": 0.8929713596
      }
    },
    {
      "doubleSided": true,
      "name": "03_-_Default_0",
      "pbrMetallicRoughness": {
        "metallicFactor": 0.7,
        "roughnessFactor": 0.8929713596
      }
    },
    {
      "doubleSided": true,
      "name": "21_-_Default",
      "normalTexture": {
        "index": 1
      },
      "pbrMetallicRoughness": {
        "baseColorTexture": {
          "index": 0
        },
        "metallicFactor": 0.7,
        "roughnessFactor": 0.8929713596
      }
    }
  ],
  "meshes": [
    {
      "name": "Mario_Hat_03 - Default_0",
      "primitives": [
        {
          "attributes": {
            "NORMAL": 1,
            "POSITION": 0,
            "TEXCOORD_0": 2
          },
          "indices": 3,
          "material": 0,
          "mode": 4
        }
      ]
    },
    {
      "name": "Mario_Hat_03 - Default_0",
      "primitives": [
        {
          "attributes": {
            "NORMAL": 5,
            "POSITION": 4,
            "TEXCOORD_0": 6
          },
          "indices": 7,
          "material": 1,
          "mode": 4
        }
      ]
    },
    {
      "name": "Mario_Hat_21 - Default_0",
      "primitives": [
        {
          "attributes": {
            "NORMAL": 9,
            "POSITION": 8,
            "TANGENT": 10,
            "TEXCOORD_0": 11
          },
          "indices": 12,
          "material": 2,
          "mode": 4
        }
      ]
    }
  ],
  "nodes": [
    {
      "children": [
        1
      ],
      "matrix": [
        1.0,
        0.0,
        0.0,
        0.0,
        0.0,
        2.220446049250313e-16,
        -1.0,
        0.0,
        0.0,
        1.0,
        2.220446049250313e-16,
        0.0,
        0.0,
        0.0,
        0.0,
        1.0
      ],
      "name": "Sketchfab_model"
    },
    {
      "children": [
        2
      ],
      "matrix": [
        1.0,
        0.0,
        0.0,
        0.0,
        0.0,
        0.0,
        1.0,
        0.0,
        0.0,
        -1.0,
        0.0,
        0.0,
        0.0,
        0.0,
        0.0,
        1.0
      ],
      "name": "0bb80e2f36224277977abe2a4be5dc5a.fbx"
    },
    {
      "children": [
        3
      ],
      "name": "RootNode"
    },
    {
      "children": [
        4
      ],
      "matrix": [
        1.0,
        0.0,
        0.0,
        0.0,
        0.0,
        0.9999999999999867,
        1.6292068494294582e-07,
        0.0,
        0.0,
        -1.6292068494294582e-07,
        0.9999999999999867,
        0.0,
        -8.022066116333008,
        52.46295166015625,
        -1.3272724151611328,
        1.0
      ],
      "name": "Mario_Hat"
    },
    {
      "children": [
        5,
        6,
        7
      ],
      "matrix": [
        1.0,
        0.0,
        -0.0,
        0.0,
        0.0,
        1.0,
        0.0,
        0.0,
        0.0,
        0.0,
        1.0,
        0.0,
        0.849700927734375,
        -185.4830322265625,
        5.815856456756592,
        1.0
      ],
      "name": "Object_4"
    },
    {
      "mesh": 0,
      "name": "Mario_Hat_03 - Default_0"
    },
    {
      "mesh": 1,
      "name": "Mario_Hat_03 - Default_0"
    },
    {
      "mesh": 2,
      "name": "Mario_Hat_21 - Default_0"
    }
  ],
  "samplers": [
    {
      "magFilter": 9729,
      "minFilter": 9987,
      "wrapS": 10497,
      "wrapT": 10497
    }
  ],
  "scene": 0,
  "scenes": [
    {
      "name": "Sketchfab_Scene",
      "nodes": [
        0
      ]
    }
  ],
  "textures": [
    {
      "sampler": 0,
      "source": 0
    },
    {
      "sampler": 0,
      "source": 1
    }
  ]
}
